<?xml version="1.0" encoding="UTF-8"?>
<svg version="1.1" xmlns="http://www.w3.org/2000/svg" width="1024" height="1024">
<path d="M0 0 C337.92 0 675.84 0 1024 0 C1024 337.92 1024 675.84 1024 1024 C686.08 1024 348.16 1024 0 1024 C0 686.08 0 348.16 0 0 Z " fill="#0C0E16" transform="translate(0,0)"/>
<path d="M0 0 C11.20068721 3.75786702 21.20841729 9.40249134 29.9296875 17.390625 C31.08017578 18.38642578 31.08017578 18.38642578 32.25390625 19.40234375 C44.57557211 30.71986706 53.1092288 48.82443582 54.11865234 65.51513672 C54.19756728 68.91350559 54.20264185 72.30396885 54.1796875 75.703125 C54.18742188 76.83685547 54.19515625 77.97058594 54.203125 79.13867188 C54.15111302 101.95892871 46.82910499 122.23561126 30.75390625 138.69921875 C26.76980571 142.49596186 22.63272898 145.54981268 17.9296875 148.390625 C17.07890625 148.92300781 16.228125 149.45539063 15.3515625 150.00390625 C3.33745567 157.08239317 -9.71359842 159.57350188 -23.50390625 159.48828125 C-24.28318481 159.48727417 -25.06246338 159.48626709 -25.86535645 159.48522949 C-28.74619033 159.48004032 -31.62700307 159.46607941 -34.5078125 159.453125 C-40.9634375 159.4325 -47.4190625 159.411875 -54.0703125 159.390625 C-54.0703125 145.200625 -54.0703125 131.010625 -54.0703125 116.390625 C-37.6328125 116.578125 -37.6328125 116.578125 -32.50219727 116.66088867 C-24.94770235 116.73208355 -18.03624534 116.67477108 -11.0703125 113.390625 C-10.33401611 113.06932617 -9.59771973 112.74802734 -8.83911133 112.41699219 C-4.39496279 110.43273818 -1.31503205 108.08600004 1.9296875 104.390625 C2.950625 103.276875 2.950625 103.276875 3.9921875 102.140625 C10.8494519 92.4077336 13.15955158 81.12666842 11.9296875 69.390625 C9.50518209 58.55096731 4.69030367 50.32121231 -4.3359375 43.73828125 C-12.0536197 39.08338552 -20.3714058 38.01351673 -29.2578125 38.078125 C-30.07862305 38.08376465 -30.89943359 38.0894043 -31.74511719 38.09521484 C-41.22717687 38.281608 -51.803558 38.61148374 -58.80859375 45.79296875 C-65.38510703 54.12050414 -64.21641283 64.78889626 -64.2121582 74.85229492 C-64.21519515 76.20182406 -64.21871807 77.55135218 -64.22268677 78.90087891 C-64.23053607 81.79437051 -64.23570565 84.68785001 -64.23897743 87.58135033 C-64.24492697 92.16847304 -64.26150481 96.75551977 -64.28031921 101.34260559 C-64.28665558 102.91834922 -64.29298122 104.4940929 -64.29929638 106.06983662 C-64.30246219 106.85867351 -64.305628 107.64751041 -64.30888975 108.46025145 C-64.35082412 119.12754036 -64.38392314 129.7947923 -64.39624023 140.4621582 C-64.40465247 147.67395283 -64.42725626 154.8855571 -64.4655959 162.09725648 C-64.48524459 165.90438864 -64.49779861 169.71123703 -64.49276161 173.51842308 C-64.48807402 177.10475415 -64.50214102 180.69054851 -64.52977371 184.27677155 C-64.53984371 186.19812685 -64.530504 188.11955433 -64.52027893 190.04090881 C-64.66366368 203.56412872 -68.1284794 215.4487919 -77.8203125 225.140625 C-86.82246132 231.37288188 -95.09982784 234.17588074 -106.0703125 233.390625 C-107.97539846 231.48553904 -107.19321653 228.67212654 -107.19939381 226.13703483 C-107.19648097 225.22946577 -107.19356813 224.32189671 -107.19056702 223.38682556 C-107.19142144 222.43041988 -107.19227587 221.47401421 -107.19315618 220.48862654 C-107.1948139 217.25794274 -107.18928486 214.02730994 -107.18383789 210.79663086 C-107.18355606 208.49109397 -107.18371368 206.18555698 -107.1842804 203.88002014 C-107.18456852 197.59928013 -107.17866948 191.31855903 -107.17170644 185.03782344 C-107.16547528 178.48213085 -107.16486929 171.92643789 -107.16368103 165.3707428 C-107.16108792 154.36035838 -107.15466573 143.34998062 -107.14575195 132.33959961 C-107.13657861 120.99682653 -107.1294974 109.65405534 -107.12524414 98.3112793 C-107.12498142 97.61258506 -107.12471869 96.91389081 -107.12444801 96.19402402 C-107.12314301 92.68902199 -107.12187929 89.18401995 -107.12063611 85.6790179 C-107.11026256 56.5828824 -107.09256931 27.48675379 -107.0703125 -1.609375 C-103.4544315 -1.62412062 -99.83855843 -1.63285573 -96.22265625 -1.640625 C-95.2131189 -1.64481445 -94.20358154 -1.64900391 -93.16345215 -1.65332031 C-84.10422944 -1.66785868 -75.10490702 -1.24100708 -66.0703125 -0.609375 C-65.4103125 1.040625 -64.7503125 2.690625 -64.0703125 4.390625 C-63.10544922 3.99230469 -63.10544922 3.99230469 -62.12109375 3.5859375 C-55.68499296 1.07025759 -49.57552503 -0.34295676 -42.72265625 -1.21484375 C-28.66228117 -3.30629866 -14.0457259 -4.1419538 0 0 Z " fill="#B185A1" transform="translate(348.0703125,405.609375)"/>
<path d="M0 0 C1.45422934 1.03948523 2.8918178 2.10261541 4.3125 3.1875 C5.06273437 3.74953125 5.81296875 4.3115625 6.5859375 4.890625 C17.61396775 13.84854718 24.31095595 27.23278093 26.3125 41.1875 C26.40833603 43.38273402 26.45759906 45.58029916 26.47021484 47.77758789 C26.48047699 49.07076431 26.49073914 50.36394073 26.50131226 51.69630432 C26.50475018 52.38172365 26.5081881 53.06714298 26.51173019 53.7733326 C26.5236634 55.95138771 26.54316021 58.12925701 26.56484985 60.30723572 C26.62591621 66.49813315 26.67996259 72.68901638 26.71386719 78.88012695 C26.83314882 99.51201153 27.03470406 119.90965878 32.76171875 139.91015625 C33.3125 142.1875 33.3125 142.1875 33.3125 146.1875 C28.8469498 146.36105645 24.38320319 146.48779376 19.9152832 146.57202148 C18.39703163 146.60714147 16.87901546 146.65485226 15.36157227 146.71557617 C2.80754948 147.20522832 2.80754948 147.20522832 -0.74145508 144.78930664 C-2.09337215 142.9581848 -2.91080128 141.32100552 -3.6875 139.1875 C-4.13738281 138.24003906 -4.58726562 137.29257812 -5.05078125 136.31640625 C-5.36402344 135.46949219 -5.67726563 134.62257813 -6 133.75 C-6.32613281 132.88503906 -6.65226562 132.02007813 -6.98828125 131.12890625 C-7.21902344 130.48824219 -7.44976562 129.84757813 -7.6875 129.1875 C-8.06519531 129.68378906 -8.44289063 130.18007813 -8.83203125 130.69140625 C-16.68787701 140.38702853 -27.72655453 146.83172698 -40.0703125 148.83203125 C-52.68130301 150.07134025 -66.0739535 150.94939865 -77.6875 145.1875 C-78.55246094 144.76339844 -79.41742188 144.33929687 -80.30859375 143.90234375 C-92.42381968 137.28230401 -99.91640818 127.55187926 -103.8203125 114.359375 C-106.56690868 102.60795665 -105.78492199 89.70909795 -99.6875 79.1875 C-96.96876357 75.5177227 -93.98745617 72.33771026 -90.6875 69.1875 C-90.01332031 68.5171875 -89.33914063 67.846875 -88.64453125 67.15625 C-69.21085355 48.8474758 -36.31593451 52.91335868 -11.6875 53.1875 C-12.11611278 50.94698985 -12.55898479 48.70920455 -13.0078125 46.47265625 C-13.37543701 44.60299194 -13.37543701 44.60299194 -13.75048828 42.69555664 C-15.14931234 37.45853141 -17.31165555 34.34023515 -21.6875 31.1875 C-31.94941108 25.25483266 -43.19982461 24.73405493 -54.67578125 26.69921875 C-61.57905731 28.5565543 -68.03128394 31.89349522 -73.4375 36.5625 C-75.6875 38.1875 -75.6875 38.1875 -77.9609375 38.19921875 C-81.98943049 36.70440545 -83.92444061 33.9214107 -86.5625 30.625 C-87.61511895 29.34312023 -88.66850101 28.0618667 -89.72265625 26.78125 C-90.22812988 26.16121094 -90.73360352 25.54117188 -91.25439453 24.90234375 C-93.58508302 22.11345858 -96.11868763 19.51452974 -98.67578125 16.93359375 C-99.6875 15.1875 -99.6875 15.1875 -99.7265625 12.78515625 C-98.2843787 9.17969675 -95.80264044 7.3992163 -92.75 5.1875 C-92.15807861 4.74962158 -91.56615723 4.31174316 -90.95629883 3.8605957 C-65.38306925 -14.66747677 -26.92654072 -17.11393262 0 0 Z " fill="#BF9BB2" transform="translate(513.6875,414.8125)"/>
<path d="M0 0 C4.92954646 -0.09885708 9.85851647 -0.17146125 14.78881836 -0.21972656 C16.46600392 -0.23984565 18.14311931 -0.26714451 19.82006836 -0.30175781 C22.230482 -0.35026569 24.63996872 -0.37296464 27.05078125 -0.390625 C27.80087967 -0.41127014 28.55097809 -0.43191528 29.32380676 -0.45318604 C34.46363348 -0.45540283 34.46363348 -0.45540283 36.82763672 1.55175781 C38.38802929 4.81032023 39.59516654 8.13201366 40.70703125 11.5625 C40.95309616 12.30234634 41.19916107 13.04219269 41.4526825 13.80445862 C42.24698123 16.2005104 43.03002676 18.60006308 43.8125 21 C44.35510216 22.64587285 44.89807176 24.29162462 45.44140625 25.93725586 C48.49730328 35.22609749 51.44898995 44.53886071 54.19018555 53.92602539 C55.63302281 58.85676491 57.27185977 63.67058454 59.08203125 68.48046875 C61.27176694 74.49059437 63.01146558 80.66070386 64.82666016 86.79248047 C65.44142334 88.86858216 66.05874964 90.94392637 66.6784668 93.01855469 C67.30394274 95.11261651 67.92400034 97.20830523 68.53833008 99.30566406 C68.82732178 100.27084961 69.11631348 101.23603516 69.4140625 102.23046875 C69.6713916 103.10082764 69.9287207 103.97118652 70.19384766 104.86791992 C70.89809186 107.17230849 70.89809186 107.17230849 73 109 C74.14921626 105.30830461 75.29754305 101.61633364 76.44503784 97.92410278 C76.85793138 96.59567246 77.27095708 95.26728321 77.68411255 93.93893433 C80.03213021 86.38788791 82.35915249 78.83154186 84.62915039 71.2565918 C87.80954602 60.65687396 91.24808315 50.15546268 94.78421021 39.67034912 C97.29813451 32.21417516 99.73460637 24.7597293 101.875 17.1875 C105.84181548 3.15818452 105.84181548 3.15818452 109 0 C111.52094076 -0.08847743 114.01430893 -0.11527301 116.53515625 -0.09765625 C117.66503212 -0.09553383 117.66503212 -0.09553383 118.81773376 -0.09336853 C121.2326956 -0.08775376 123.64756601 -0.07519883 126.0625 -0.0625 C127.69596221 -0.0574869 129.32942586 -0.05292366 130.96289062 -0.04882812 C134.97529585 -0.03777954 138.98763241 -0.02050506 143 0 C141.83828318 8.91653814 139.09150381 17.14863489 136.12149048 25.58493042 C134.56092861 30.02146839 133.03006508 34.46827528 131.49609375 38.9140625 C131.15398361 39.90383591 130.81187347 40.89360931 130.45939636 41.91337585 C125.55360501 56.14206146 120.8123192 70.42635687 116.05625916 84.70560837 C115.31538773 86.92883442 114.57357208 89.15174309 113.8314209 91.37454224 C112.64671399 94.92283246 111.46356718 98.47163881 110.28170586 102.02087784 C109.84331774 103.33682402 109.40448647 104.65262266 108.96516609 105.9682579 C106.75799199 112.5804529 104.60061258 119.19715902 102.62638855 125.88285828 C101.18182731 130.76535632 99.58407231 135.59893327 98 140.4375 C97.65710938 141.51193359 97.31421875 142.58636719 96.9609375 143.69335938 C96.62320313 144.72138672 96.28546875 145.74941406 95.9375 146.80859375 C95.63714844 147.73470459 95.33679688 148.66081543 95.02734375 149.61499023 C93.94702555 152.12298179 93.09342672 153.28295602 91 155 C88.02304383 155.31056874 85.25964505 155.4441512 82.28125 155.43359375 C81.42696411 155.4388356 80.57267822 155.44407745 79.69250488 155.44947815 C77.88697395 155.45589938 76.08140118 155.45456002 74.27587891 155.44604492 C71.50998683 155.43753074 68.74615691 155.46629979 65.98046875 155.49804688 C64.22656312 155.49965885 62.47265383 155.49908143 60.71875 155.49609375 C59.89056763 155.50732773 59.06238525 155.51856171 58.20910645 155.53013611 C52.48902436 155.46052937 52.48902436 155.46052937 50.00561523 153.12182617 C48.867881 150.7212318 48.16976637 148.46248278 47.5625 145.875 C46.69687914 142.20563862 45.55381221 138.80024738 44.1328125 135.31640625 C41.95230974 129.9704648 40.10880244 124.54762953 38.3125 119.0625 C37.61730834 116.95829341 36.92199072 114.85412842 36.2265625 112.75 C35.68563965 111.10837891 35.68563965 111.10837891 35.13378906 109.43359375 C33.16525738 103.47204561 31.17503237 97.51773437 29.1875 91.5625 C28.45172751 89.35550056 27.71604582 87.14847083 26.98046875 84.94140625 C26.67004639 84.01013916 26.35962402 83.07887207 26.03979492 82.11938477 C25.4636513 80.39095391 24.8882607 78.66226953 24.315979 76.93255615 C22.58403083 71.7090794 20.79264387 66.50956687 18.9609375 61.3203125 C18.37818709 59.66435924 17.79559216 58.00835127 17.21313477 56.35229492 C16.91255157 55.49799896 16.61196838 54.643703 16.30227661 53.76351929 C13.52026682 45.84744936 10.75705413 37.92479192 8 30 C7.73717224 29.24454895 7.47434448 28.4890979 7.20355225 27.71075439 C5.63963347 23.20867155 4.09523815 18.70031815 2.5625 14.1875 C2.1794873 13.08100098 1.79647461 11.97450195 1.40185547 10.83447266 C1.06428223 9.83077637 0.72670898 8.82708008 0.37890625 7.79296875 C0.0857251 6.9321167 -0.20745605 6.07126465 -0.50952148 5.18432617 C-1 3 -1 3 0 0 Z " fill="#C9B1BD" transform="translate(645,407)"/>
<path d="M0 0 C0.71353638 0.00202423 1.42707275 0.00404846 2.16223145 0.00613403 C2.89091431 0.00517731 3.61959717 0.00422058 4.37036133 0.00323486 C5.91377855 0.00255318 7.45719861 0.00440666 9.00061035 0.00857544 C11.37095544 0.01392391 13.74111104 0.00863011 16.1114502 0.00222778 C17.60754437 0.00288857 19.10363842 0.00416973 20.59973145 0.00613403 C21.31326782 0.0041098 22.0268042 0.00208557 22.76196289 0 C27.76602953 0.02399462 27.76602953 0.02399462 28.88098145 1.13894653 C28.96953305 3.80520684 28.99622818 6.44541768 28.9786377 9.11160278 C28.97722275 9.90924545 28.9758078 10.70688812 28.97434998 11.52870178 C28.96873461 14.08632089 28.95617956 16.64385371 28.94348145 19.20144653 C28.93846842 20.93126298 28.93390517 22.6610808 28.92980957 24.39089966 C28.91876019 28.64028206 28.90148531 32.88959965 28.88098145 37.13894653 C30.7361438 37.13109131 30.7361438 37.13109131 32.62878418 37.12307739 C37.20022869 37.10503092 41.77167004 37.09351583 46.34313965 37.08401489 C48.32491586 37.07897386 50.30668833 37.07214115 52.28845215 37.06350708 C55.13050253 37.05143138 57.97250392 37.04571608 60.8145752 37.04129028 C61.70623886 37.036129 62.59790253 37.03096771 63.5165863 37.02565002 C65.63838746 37.02545477 67.76008924 37.07684623 69.88098145 37.13894653 C71.76417413 39.02213922 71.01152429 42.2582479 71.01379395 44.76394653 C71.01475067 45.42604126 71.0157074 46.08813599 71.01669312 46.77029419 C71.01737471 48.17247614 71.01552186 49.57466124 71.01135254 50.97683716 C71.00600391 53.12990367 71.01129814 55.28276156 71.0177002 57.43582153 C71.01703941 58.795197 71.01575824 60.15457233 71.01379395 61.51394653 C71.01266602 62.75918091 71.01153809 64.00441528 71.01037598 65.28738403 C70.88098145 68.13894653 70.88098145 68.13894653 69.88098145 69.13894653 C66.85120341 69.22765926 63.84431122 69.25414004 60.8145752 69.23660278 C59.9059523 69.23518784 58.99732941 69.23377289 58.06117249 69.23231506 C55.14690924 69.22669847 52.23272164 69.21414318 49.31848145 69.20144653 C47.34777943 69.19643367 45.37707621 69.19187039 43.40637207 69.18777466 C38.56454586 69.17672364 33.7227765 69.15944791 28.88098145 69.13894653 C28.89590451 78.61493633 28.93771275 88.0903274 29.01307201 97.5660305 C29.04724318 101.96686889 29.07243652 106.36736378 29.07653809 110.76834106 C29.08084238 115.02213446 29.10947971 119.27515427 29.15441322 123.5287056 C29.16732059 125.14480698 29.17172007 126.76100126 29.16713524 128.37714767 C29.14535066 138.39536548 29.4210303 147.43928066 36.7532196 155.09338379 C41.35085889 159.31146537 44.71127045 160.27013794 50.97473145 160.13113403 C52.16969238 160.11437622 53.36465332 160.09761841 54.5958252 160.08035278 C57.1194118 160.03607933 59.64287345 159.9839945 62.1661377 159.92410278 C63.36109863 159.9099231 64.55605957 159.89574341 65.78723145 159.88113403 C66.8835791 159.85905884 67.97992676 159.83698364 69.10949707 159.8142395 C71.88098145 160.13894653 71.88098145 160.13894653 73.69543457 161.52200317 C78.72207411 168.37773499 82.18013644 179.68781787 81.88098145 188.13894653 C65.40984103 195.34507046 43.97053418 197.1960032 26.88098145 191.13894653 C11.72389497 184.7495424 3.0807535 175.00430908 -3.11901855 160.13894653 C-7.1684942 149.84652928 -6.25210441 138.50660513 -6.2166748 127.63504028 C-6.21480682 125.94396507 -6.21338472 124.25288931 -6.21238708 122.56181335 C-6.20859184 118.13794427 -6.19878751 113.71410866 -6.18768311 109.29025269 C-6.17740424 104.76521253 -6.17287566 100.2401669 -6.16784668 95.71511841 C-6.15716221 86.85637984 -6.14012225 77.99766598 -6.11901855 69.13894653 C-6.71964111 69.14418335 -7.32026367 69.14942017 -7.93908691 69.15481567 C-10.64488693 69.17552667 -13.35067032 69.18858778 -16.05651855 69.20144653 C-17.0020459 69.20982544 -17.94757324 69.21820435 -18.92175293 69.22683716 C-20.27043457 69.23167114 -20.27043457 69.23167114 -21.6463623 69.23660278 C-22.47901611 69.2418396 -23.31166992 69.24707642 -24.16955566 69.25247192 C-26.11901855 69.13894653 -26.11901855 69.13894653 -27.11901855 68.13894653 C-27.21914257 65.93243997 -27.24983035 63.72272267 -27.25183105 61.51394653 C-27.25278778 60.85185181 -27.25374451 60.18975708 -27.25473022 59.50759888 C-27.25541182 58.10541692 -27.25355897 56.70323183 -27.24938965 55.30105591 C-27.24404102 53.1479894 -27.24933525 50.99513151 -27.2557373 48.84207153 C-27.25507652 47.48269607 -27.25379535 46.12332074 -27.25183105 44.76394653 C-27.25070312 43.51871216 -27.2495752 42.27347778 -27.24841309 40.99050903 C-27.11901855 38.13894653 -27.11901855 38.13894653 -26.11901855 37.13894653 C-24.63029996 37.05225221 -23.13757356 37.0319116 -21.6463623 37.04129028 C-20.74724121 37.04451294 -19.84812012 37.0477356 -18.92175293 37.05105591 C-17.50346191 37.06362427 -17.50346191 37.06362427 -16.05651855 37.07644653 C-15.10712402 37.08095825 -14.15772949 37.08546997 -13.17956543 37.09011841 C-10.8259879 37.10194543 -8.47253378 37.11842628 -6.11901855 37.13894653 C-6.12687378 35.51098145 -6.12687378 35.51098145 -6.1348877 33.85012817 C-6.15293692 29.83776671 -6.16445027 25.82540887 -6.1739502 21.8130188 C-6.1789906 20.07375486 -6.18582286 18.33449517 -6.19445801 16.59524536 C-6.20653647 14.10068717 -6.21224964 11.6061848 -6.2166748 9.11160278 C-6.22183609 8.32930801 -6.22699738 7.54701324 -6.23231506 6.74101257 C-6.23251081 4.87327539 -6.1810155 3.00565449 -6.11901855 1.13894653 C-4.41408974 -0.56598228 -2.27367595 0.01090233 0 0 Z " fill="#C9A8B8" transform="translate(572.1190185546875,369.8610534667969)"/>
<path d="M0 0 C0.11637027 9.96256196 0.20495527 19.92495954 0.25906086 29.88806534 C0.28504231 34.51546663 0.32022805 39.14239947 0.37719727 43.76953125 C0.43192956 48.2434925 0.46150643 52.71700607 0.47438622 57.19127655 C0.48355277 58.88957507 0.50145114 60.5878519 0.52865028 62.28595734 C0.7350445 75.71824054 -0.87980464 86.85700674 -10.62109375 97.0234375 C-19.74452694 104.60382698 -28.41237704 106 -40 106 C-40 80.26 -40 54.52 -40 28 C-38.35 27.34 -36.7 26.68 -35 26 C-34.319375 25.46375 -33.63875 24.9275 -32.9375 24.375 C-31 23 -31 23 -27 23 C-27 22.34 -27 21.68 -27 21 C-25.98035156 20.45085938 -24.96070313 19.90171875 -23.91015625 19.3359375 C-20.0605151 17.13365222 -16.7781151 14.52637861 -13.4375 11.625 C-12.89931641 11.16867187 -12.36113281 10.71234375 -11.80664062 10.2421875 C-8.97312309 7.81443241 -6.27823117 5.30789565 -3.66015625 2.6484375 C-1 0 -1 0 0 0 Z " fill="#B5B7CC" transform="translate(282,533)"/>
<path d="M0 0 C3 1 3 1 4.39453125 3.484375 C4.86246094 4.56203125 5.33039062 5.6396875 5.8125 6.75 C6.59173828 8.50376953 6.59173828 8.50376953 7.38671875 10.29296875 C7.925279 11.52829744 8.46303631 12.76397649 9 14 C10.03250823 16.35819781 11.07378974 18.71257934 12.125 21.0625 C12.80949219 22.62677734 12.80949219 22.62677734 13.5078125 24.22265625 C17.1809806 31.05936442 22.43896569 32.61564141 29.4375 35.125 C31.31124069 35.81498802 33.18493994 36.50508858 35.05859375 37.1953125 C35.88673584 37.49453613 36.71487793 37.79375977 37.56811523 38.10205078 C40.06447794 39.02380784 42.53352282 40.00131721 45 41 C45 41.99 45 42.98 45 44 C44.23816406 44.24234375 43.47632813 44.4846875 42.69140625 44.734375 C25.30404831 49.87004865 25.30404831 49.87004865 12.95288086 62.0402832 C11.38716104 65.26037878 10.14271679 68.56874041 8.9375 71.9375 C8.44661458 73.27994792 7.95572917 74.62239583 7.46484375 75.96484375 C7.22620605 76.62339355 6.98756836 77.28194336 6.74169922 77.96044922 C3.33274802 87.33450395 3.33274802 87.33450395 2 90 C0.12890625 89.34765625 0.12890625 89.34765625 -2 88 C-3.16015625 85.49609375 -3.16015625 85.49609375 -4.0625 82.4375 C-4.39378906 81.35726562 -4.72507812 80.27703125 -5.06640625 79.1640625 C-5.37449219 78.11992187 -5.68257812 77.07578125 -6 76 C-9.64516784 62.95131984 -9.64516784 62.95131984 -19 54 C-19 53.34 -19 52.68 -19 52 C-20.45599609 51.61714844 -20.45599609 51.61714844 -21.94140625 51.2265625 C-26.41704523 49.94780851 -30.65321872 48.18122656 -34.9375 46.375 C-35.71673828 46.05015625 -36.49597656 45.7253125 -37.29882812 45.390625 C-39.20066956 44.59721876 -41.10054256 43.79909683 -43 43 C-43 42.01 -43 41.02 -43 40 C-41.96101562 39.61328125 -40.92203125 39.2265625 -39.8515625 38.828125 C-36.23775122 37.48124179 -32.62963384 36.11960018 -29.02197266 34.75634766 C-27.31576524 34.11811648 -25.60201845 33.50009443 -23.88671875 32.88671875 C-18.86054111 31.03336341 -15.20359979 29.48503971 -12 25 C-10.69827614 21.87060323 -9.54273218 18.70725525 -8.40234375 15.515625 C-6.19983368 9.99401201 -3.14447167 5.02934229 0 0 Z " fill="#F7D986" transform="translate(699,255)"/>
<path d="M0 0 C1.49608021 0.0150808 2.9921752 0.02876317 4.48828125 0.04101562 C8.11749968 0.07373695 11.74615248 0.12532944 15.375 0.1875 C15.60833441 4.70745679 15.74976427 9.22585918 15.875 13.75 C15.97554688 15.66522461 15.97554688 15.66522461 16.078125 17.61914062 C16.27039357 26.87206553 16.27039357 26.87206553 13.77832031 30.53320312 C11.73960974 32.37417923 9.74174574 33.79912707 7.375 35.1875 C6.29734375 35.83460938 5.2196875 36.48171875 4.109375 37.1484375 C3.12453125 37.61507812 2.1396875 38.08171875 1.125 38.5625 C-0.36773437 39.28566406 -0.36773437 39.28566406 -1.890625 40.0234375 C-9.28431065 43.17103511 -19.60394926 43.90308729 -27.27734375 41.28125 C-32.35617252 38.23980168 -36.73595469 33.85463593 -38.625 28.1875 C-39.09245701 22.44774092 -39.45345527 17.08604334 -37.125 11.75 C-26.19874399 0.55058759 -14.96735286 -0.26424707 0 0 Z " fill="#11141D" transform="translate(486.625,491.8125)"/>
<path d="M0 0 C8.6957647 3.47830588 14.25160551 10.23273446 18.03515625 18.640625 C22.97685325 30.72477476 21.93631675 43.01378863 17 55 C12.77432075 62.61194591 7.68139163 67.92444149 0 72 C-0.65484375 72.34933594 -1.3096875 72.69867187 -1.984375 73.05859375 C-4.62721699 74.32919086 -6.49544654 75.06468634 -9.4375 74.6875 C-9.953125 74.460625 -10.46875 74.23375 -11 74 C-10.154375 73.525625 -9.30875 73.05125 -8.4375 72.5625 C1.26788907 65.99305032 6.13536354 54.39270537 8.3125 43.25 C10.0722562 30.33948096 10.59522174 16.21199399 3 5 C3 4.34 3 3.68 3 3 C2.01 2.67 1.02 2.34 0 2 C0 1.34 0 0.68 0 0 Z " fill="#393C4C" transform="translate(340,447)"/>
<path d="M0 0 C7.59 0 15.18 0 23 0 C23 0.33 23 0.66 23 1 C22.39937744 1.02505615 21.79875488 1.0501123 21.17993164 1.07592773 C18.47388563 1.1915528 15.76821717 1.31442936 13.0625 1.4375 C11.64420898 1.49647461 11.64420898 1.49647461 10.19726562 1.55664062 C9.29814453 1.59853516 8.39902344 1.64042969 7.47265625 1.68359375 C6.22367554 1.73858032 6.22367554 1.73858032 4.94946289 1.79467773 C2.99661142 1.79367103 2.99661142 1.79367103 2 3 C1.88958568 5.97059629 1.84502576 8.91843989 1.84178162 11.88990784 C1.83684364 12.83406286 1.83190566 13.77821788 1.82681805 14.75098366 C1.81136147 17.9401884 1.80306047 21.12937289 1.79467773 24.31860352 C1.78510561 26.59458599 1.77509594 28.87056665 1.76467896 31.14654541 C1.73755163 37.3466902 1.71658459 43.54684267 1.69667697 49.74701428 C1.67486552 56.21864054 1.64745323 62.69024294 1.62062073 69.16184998 C1.57631596 80.03098559 1.53549186 90.90012843 1.49731445 101.76928711 C1.45797507 112.96656245 1.4165526 124.16382688 1.37231445 135.36108398 C1.36959018 136.05081724 1.36686591 136.74055049 1.36405908 137.45118476 C1.35037986 140.91123472 1.33665954 144.37128452 1.32291877 147.83133423 C1.20890596 176.55419997 1.10218107 205.27708988 1 234 C0.67 234 0.34 234 0 234 C0 156.78 0 79.56 0 0 Z " fill="#655B6D" transform="translate(241,404)"/>
<path d="M0 0 C2.46324069 3.69486103 2.38991688 5.63293092 2 10 C0.875 11.9375 0.875 11.9375 -1 13 C-4.59350675 13.53520313 -6.31881548 13.44814771 -9.375 11.4375 C-11.59085036 8.11372447 -11.50698802 5.91105046 -11 2 C-6.91569792 -0.72286806 -4.85409123 -0.38524534 0 0 Z " fill="#DED189" transform="translate(643,233)"/>
<path d="M0 0 C7.59 0 15.18 0 23 0 C23 0.33 23 0.66 23 1 C22.39937744 1.02505615 21.79875488 1.0501123 21.17993164 1.07592773 C18.47388563 1.1915528 15.76821717 1.31442936 13.0625 1.4375 C11.64420898 1.49647461 11.64420898 1.49647461 10.19726562 1.55664062 C9.29814453 1.59853516 8.39902344 1.64042969 7.47265625 1.68359375 C6.22367554 1.73858032 6.22367554 1.73858032 4.94946289 1.79467773 C2.99661142 1.79367103 2.99661142 1.79367103 2 3 C1.87468846 5.9517038 1.8138887 8.88113522 1.79467773 11.83422852 C1.78477814 12.76096375 1.77487854 13.68769897 1.76467896 14.64251709 C1.73296299 17.72128704 1.7082668 20.80007245 1.68359375 23.87890625 C1.66303293 26.00740471 1.6420367 28.13589901 1.62062073 30.26438904 C1.56530996 35.87857704 1.51594053 41.49280243 1.46777344 47.10705566 C1.41762399 52.8311701 1.36190378 58.55522993 1.30664062 64.27929688 C1.19894898 75.51948466 1.09752862 86.75971976 1 98 C0.67 98 0.34 98 0 98 C0 65.66 0 33.32 0 0 Z " fill="#60455D" transform="translate(241,404)"/>
<path d="M0 0 C-0.99 0.33 -1.98 0.66 -3 1 C-3 4.3 -3 7.6 -3 11 C-4.62566606 10.52309796 -6.25051311 10.04340334 -7.875 9.5625 C-8.77992188 9.29566406 -9.68484375 9.02882813 -10.6171875 8.75390625 C-13 8 -13 8 -15 7 C-15 6.01 -15 5.02 -15 4 C-12.87875034 3.13656176 -10.75286928 2.28449352 -8.625 1.4375 C-6.84996094 0.72400391 -6.84996094 0.72400391 -5.0390625 -0.00390625 C-2 -1 -2 -1 0 0 Z " fill="#E1A75B" transform="translate(671,291)"/>
<path d="M0 0 C2.9375 0.1875 2.9375 0.1875 3.9375 1.1875 C3.97830783 3.18708364 3.98004356 5.18795254 3.9375 7.1875 C1.22870665 8.54189668 -1.07183268 8.25251451 -4.0625 8.1875 C-4.6875 5.3125 -4.6875 5.3125 -5.0625 2.1875 C-3.0625 0.1875 -3.0625 0.1875 0 0 Z " fill="#3D3B39" transform="translate(750.0625,343.8125)"/>
<path d="M0 0 C2.5625 0.1875 2.5625 0.1875 4.5625 2.1875 C4.00694444 6.74305556 4.00694444 6.74305556 2.5625 8.1875 C0.125 8.375 0.125 8.375 -2.4375 8.1875 C-3.0975 7.5275 -3.7575 6.8675 -4.4375 6.1875 C-3.71780303 0.28598485 -3.71780303 0.28598485 0 0 Z " fill="#D5CD92" transform="translate(709.4375,223.8125)"/>
<path d="M0 0 C1.9375 0.6875 1.9375 0.6875 4 2 C4.75 4.625 4.75 4.625 5 7 C2.525 8.485 2.525 8.485 0 10 C-1.32 9.01 -2.64 8.02 -4 7 C-3.6875 4.625 -3.6875 4.625 -3 2 C-2.01 1.34 -1.02 0.68 0 0 Z " fill="#2E2E30" transform="translate(624,274)"/>
<path d="M0 0 C2.80561393 1.40280696 3.00680507 3.0509005 4.125 5.9375 C4.47820313 6.83339844 4.83140625 7.72929687 5.1953125 8.65234375 C6 11 6 11 6 13 C6.66 13 7.32 13 8 13 C8.19335938 12.22914063 8.38671875 11.45828125 8.5859375 10.6640625 C8.84632813 9.66117187 9.10671875 8.65828125 9.375 7.625 C9.75785156 6.12839844 9.75785156 6.12839844 10.1484375 4.6015625 C11 2 11 2 13 0 C11.90301833 5.69139902 10.45946923 10.74567937 8 16 C6.140625 15.375 6.140625 15.375 4 14 C2.734375 11.25 2.734375 11.25 1.75 8 C1.41484375 6.9275 1.0796875 5.855 0.734375 4.75 C0 2 0 2 0 0 Z " fill="#DB9F66" transform="translate(693,329)"/>
<path d="M0 0 C1.65 0 3.3 0 5 0 C5.625 2.375 5.625 2.375 6 5 C5.34 5.66 4.68 6.32 4 7 C2 6.875 2 6.875 0 6 C-1.25 3.9375 -1.25 3.9375 -2 2 C-1.34 2 -0.68 2 0 2 C0 1.34 0 0.68 0 0 Z " fill="#4F4D40" transform="translate(762,312)"/>
<path d="M0 0 C4.62 0 9.24 0 14 0 C14.66 2.31 15.32 4.62 16 7 C15.34 7 14.68 7 14 7 C13.67 5.35 13.34 3.7 13 2 C11.783125 2.020625 10.56625 2.04125 9.3125 2.0625 C6.08022678 2.06824116 3.15065259 1.78766315 0 1 C0 0.67 0 0.34 0 0 Z " fill="#8B5F7B" transform="translate(268,405)"/>
<path d="M0 0 C-0.33 1.32 -0.66 2.64 -1 4 C-4.75 5.125 -4.75 5.125 -7 4 C-7 2.68 -7 1.36 -7 0 C-4.3333581 -1.33332095 -2.83319697 -0.67102033 0 0 Z " fill="#45443C" transform="translate(607,279)"/>
<path d="M0 0 C1.65 0.33 3.3 0.66 5 1 C5 1.99 5 2.98 5 4 C3.02 4.33 1.04 4.66 -1 5 C-0.67 3.35 -0.34 1.7 0 0 Z " fill="#595645" transform="translate(745,245)"/>
<path d="M0 0 C0.66 0.33 1.32 0.66 2 1 C1.75 3.375 1.75 3.375 1 6 C-1.0625 7.3125 -1.0625 7.3125 -3 8 C-3.99 7.01 -4.98 6.02 -6 5 C-4.02 4.67 -2.04 4.34 0 4 C0 2.68 0 1.36 0 0 Z " fill="#2A2B2F" transform="translate(754,347)"/>
<path d="M0 0 C0.66 0.33 1.32 0.66 2 1 C1.67 2.65 1.34 4.3 1 6 C-0.65 5.67 -2.3 5.34 -4 5 C-4 4.01 -4 3.02 -4 2 C-2.125 0.9375 -2.125 0.9375 0 0 Z " fill="#BA7946" transform="translate(660,293)"/>
<path d="M0 0 C1.98 0.495 1.98 0.495 4 1 C3.67 2.32 3.34 3.64 3 5 C1.68 4.67 0.36 4.34 -1 4 C-0.67 2.68 -0.34 1.36 0 0 Z " fill="#C3B97C" transform="translate(623,277)"/>
<path d="M0 0 C1.32 0 2.64 0 4 0 C3.67 1.65 3.34 3.3 3 5 C2.01 4.67 1.02 4.34 0 4 C0 2.68 0 1.36 0 0 Z " fill="#DFD5A0" transform="translate(749,347)"/>
</svg>
